<svg width="50" height="50" viewBox="0 0 50 50" fill="none" xmlns="http://www.w3.org/2000/svg">
<path d="M31.3321 27.4126C32.8261 27.4126 34.0421 28.6286 34.0421 30.1226C34.0421 31.6165 32.8261 32.8325 31.3321 32.8325C29.8382 32.8325 28.6222 31.6165 28.6222 30.1226C28.6222 28.6286 29.8382 27.4126 31.3321 27.4126Z" fill="#161616"/>
<path d="M25.2521 4.76028V12.8901" stroke="#161616" stroke-width="2.52652" stroke-linecap="round"/>
<path d="M24.4877 42.63L5.13596 31.5123C4.09368 30.9217 4.09368 29.393 5.13596 28.8024L24.4877 17.6847C24.9741 17.4067 25.5648 17.4067 26.0512 17.6847L45.4029 28.8024C46.4452 29.393 46.4452 30.9217 45.4029 31.5123L26.0512 42.63C25.5648 42.908 24.9741 42.908 24.4877 42.63ZM8.88819 30.4353L25.1131 39.7811C25.2173 39.8506 25.3563 39.8506 25.4605 39.7811L41.6855 30.4353C41.9286 30.2963 41.9286 29.9836 41.6855 29.8447L25.4605 20.4988C25.3563 20.4293 25.2173 20.4293 25.1131 20.4988L8.88819 29.8447C8.64499 29.9836 8.64499 30.2963 8.88819 30.4353Z" fill="#161616"/>
<path d="M42.693 12.7511L38.2112 19.5607" stroke="#161616" stroke-width="2.52652" stroke-linecap="round"/>
<path d="M12.3278 19.5607L7.84595 12.7511" stroke="#161616" stroke-width="2.52652" stroke-linecap="round"/>
</svg>
